<svg xmlns="http://www.w3.org/2000/svg" xmlns:svg="http://www.w3.org/2000/svg" id="svg281" width="46.4" height="47.6" version="1.1" viewBox="0 0 12.277 12.594"><metadata id="metadata278"/><g id="layer1" transform="translate(-104.98444,-42.775371)"><g id="g317" transform="matrix(0.26458333,0,0,0.26458333,191.43549,375.30579)"><path id="path301-3" d="m -319.24413,-1236.0079 -7.2,-5.4 c -0.2,-0.2 -0.3,-0.4 -0.3,-0.5 0,-0.2 0.1,-0.4 0.3,-0.5 0,0 7.2,-5.4 7.2,-5.4 0.5,-0.4 1.5,-0.4 2.1,0 0,0 7.2,5.4 7.2,5.4 0.2,0.2 0.3,0.4 0.3,0.5 0,0.2 -0.1,0.4 -0.3,0.5 l -7.2,5.4 c -0.6,0.4 -1.6,0.4 -2.1,0" class="st1" style="fill:#95c840"/><path id="path303-5" d="m -319.24413,-1218.6079 -7.2,-5.4 c -0.2,-0.2 -0.3,-0.4 -0.3,-0.5 0,-0.2 0.1,-0.4 0.3,-0.5 0,0 7.2,-5.4 7.2,-5.4 0.5,-0.4 1.5,-0.4 2.1,0 0,0 7.2,5.4 7.2,5.4 0.2,0.2 0.3,0.4 0.3,0.5 0,0.2 -0.1,0.4 -0.3,0.5 l -7.2,5.4 c -0.6,0.5 -1.6,0.5 -2.1,0" class="st2" style="fill:#59c9e6"/><path id="path305-2" d="m -307.64413,-1244.6079 -7.2,-5.4 c -0.2,-0.2 -0.3,-0.4 -0.3,-0.6 0,-0.2 0.1,-0.4 0.3,-0.5 0,0 7.2,-5.4 7.2,-5.4 0.6,-0.4 1.5,-0.4 2.1,0 l 7.2,5.4 c 0.2,0.2 0.3,0.4 0.3,0.5 0,0.2 -0.1,0.4 -0.3,0.6 l -7.2,5.4 c -0.6,0.4 -1.5,0.4 -2.1,0" class="st3" style="fill:#ebe719"/><path id="path307-2" d="m -307.64413,-1227.2079 -7.2,-5.4 c -0.2,-0.2 -0.3,-0.4 -0.3,-0.5 0,-0.2 0.1,-0.4 0.3,-0.5 0,0 7.2,-5.4 7.2,-5.4 0.6,-0.4 1.5,-0.4 2.1,0 l 7.2,5.4 c 0.2,0.2 0.3,0.4 0.3,0.5 0,0.2 -0.1,0.4 -0.3,0.5 l -7.2,5.4 c -0.6,0.4 -1.5,0.4 -2.1,0" class="st4" style="fill:#50c0af"/><path id="path309-6" d="m -307.64413,-1209.5079 -7.2,-5.4 c -0.2,-0.2 -0.3,-0.4 -0.3,-0.6 0,-0.2 0.1,-0.4 0.3,-0.5 0,0 7.2,-5.4 7.2,-5.4 0.6,-0.4 1.5,-0.4 2.1,0 l 7.2,5.4 c 0.2,0.2 0.3,0.4 0.3,0.5 0,0.2 -0.1,0.4 -0.3,0.6 l -7.2,5.4 c -0.6,0.4 -1.5,0.4 -2.1,0" class="st5" style="fill:#0377bb"/><path id="path311-6" d="m -296.04413,-1236.0079 -7.2,-5.4 c -0.2,-0.2 -0.3,-0.4 -0.3,-0.5 0,-0.2 0.1,-0.4 0.3,-0.5 0,0 7.2,-5.4 7.2,-5.4 0.5,-0.4 1.5,-0.4 2.1,0 0,0 7.2,5.4 7.2,5.4 0.2,0.2 0.3,0.4 0.3,0.5 0,0.2 -0.1,0.4 -0.3,0.5 l -7.2,5.4 c -0.5,0.4 -1.5,0.4 -2.1,0" class="st6" style="fill:#78bc43"/><path id="path313-7" d="m -296.04413,-1218.6079 -7.2,-5.4 c -0.2,-0.2 -0.3,-0.4 -0.3,-0.5 0,-0.2 0.1,-0.4 0.3,-0.5 0,0 7.2,-5.4 7.2,-5.4 0.5,-0.4 1.5,-0.4 2.1,0 0,0 7.2,5.4 7.2,5.4 0.2,0.2 0.3,0.4 0.3,0.5 0,0.2 -0.1,0.4 -0.3,0.5 l -7.2,5.4 c -0.5,0.5 -1.5,0.5 -2.1,0" class="st7" style="fill:#109fda"/><path id="path315-8" d="m -280.34413,-1233.2079 c 0,1.7 -1.3,3.1 -3.1,3.1 -1.7,0 -3.1,-1.4 -3.1,-3.1 0,-1.7 1.3,-3.1 3.1,-3.1 1.8,0.1 3.1,1.4 3.1,3.1 m -5.7,0 c 0,1.5 1.1,2.6 2.6,2.6 1.5,0 2.6,-1.2 2.6,-2.6 0,-1.5 -1.1,-2.6 -2.6,-2.6 -1.4,0 -2.6,1.2 -2.6,2.6 m 2,1.8 h -0.4 v -3.6 h 1.4 c 0.8,0 1.2,0.3 1.2,1 0,0.6 -0.4,0.9 -0.9,1 l 1.1,1.6 h -0.5 l -1,-1.6 h -0.7 v 1.6 z m 0.6,-1.9 c 0.5,0 1.1,0 1.1,-0.6 0,-0.5 -0.4,-0.6 -0.8,-0.6 h -0.8 v 1.2 z" class="st0" style="fill:#231f20"/></g></g><style id="style283" type="text/css">.st0{fill:#231f20}.st1{fill:#95c840}.st2{fill:#59c9e6}.st3{fill:#ebe719}.st4{fill:#50c0af}.st5{fill:#0377bb}.st6{fill:#78bc43}.st7{fill:#109fda}</style></svg>