<svg xmlns="http://www.w3.org/2000/svg" xmlns:svg="http://www.w3.org/2000/svg" id="Layer_1" width="204" height="200" data-name="Layer 1" version="1.1" viewBox="-10 10 204 200"><metadata id="metadata4168"/><defs id="defs4149"><style id="style4147">.cls-1{opacity:.98}.cls-2{fill:#ed1944}</style></defs><title id="title4151">OpenStack_Logo_Mark</title><g id="g4161" class="cls-1" transform="translate(0,19.649994)" style="opacity:.98000004"><path id="path4153" d="m 461.82,215.24 h -150 a 17.17,17.17 0 0 0 -17.12,17.12 v 40.35 h 41.61 v -6.59 a 9.26,9.26 0 0 1 9.26,-9.26 h 82.53 a 9.26,9.26 0 0 1 9.26,9.26 v 6.59 H 479 v -40.35 a 17.18,17.18 0 0 0 -17.18,-17.12 z" class="cls-2" transform="translate(-294.67,-215.24)" style="fill:#ed1944"/><path id="path4155" d="m 437.33,344.72 a 9.27,9.27 0 0 1 -9.26,9.26 h -82.53 a 9.27,9.27 0 0 1 -9.26,-9.26 v -6.59 h -41.61 v 40.34 a 17.17,17.17 0 0 0 17.12,17.13 h 150 A 17.18,17.18 0 0 0 479,378.47 v -40.34 h -41.67 z" class="cls-2" transform="translate(-294.67,-215.24)" style="fill:#ed1944"/><rect id="rect4157" width="41.62" height="41.62" x="0" y="69.37" class="cls-2" style="fill:#ed1944"/><rect id="rect4159" width="41.62" height="41.62" x="142.66" y="69.37" class="cls-2" style="fill:#ed1944"/></g></svg>