<svg xmlns="http://www.w3.org/2000/svg" xmlns:xlink="http://www.w3.org/1999/xlink" id="master-artboard" width="340" height="340" x="0" y="0" version="1.1" viewBox="0 0 340 340" style="enable-background:new 0 0 1400 980"><g transform="matrix(3.626147270202637, 0, 0, 3.626147270202637, -11.9060018297983, -11.905984878540039)"><path fill="#f47421" d="M 95 50 A 45 45 0 0 1 50 95 A 45 45 0 0 1 5 50 A 45 45 0 0 1 50 5 A 45 45 0 0 1 95 50 Z"/><path fill="none" stroke="#fff" stroke-width="8.55" d="M 71.825001 50 A 21.825001 21.825001 0 0 1 50 71.825001 A 21.825001 21.825001 0 0 1 28.174999 50 A 21.825001 21.825001 0 0 1 50 28.174999 A 21.825001 21.825001 0 0 1 71.825001 50 Z"/><g id="friend"><path fill="#f47421" d="M 27.8376 50 A 8.4376 8.4376 0 0 1 19.4 58.4376 A 8.4376 8.4376 0 0 1 10.962399 50 A 8.4376 8.4376 0 0 1 19.4 41.5624 A 8.4376 8.4376 0 0 1 27.8376 50 Z"/><path stroke="#f47421" stroke-width="3.238" d="M67,50H77"/><path fill="#fff" d="M 25.40745 50 A 6.00745 6.00745 0 0 1 19.4 56.00745 A 6.00745 6.00745 0 0 1 13.39255 50 A 6.00745 6.00745 0 0 1 19.4 43.99255 A 6.00745 6.00745 0 0 1 25.40745 50 Z"/></g><use transform="rotate(120,50,50)" xlink:href="#friend"/><use transform="rotate(240,50,50)" xlink:href="#friend"/></g></svg>